HIERARCHY
ROOT hip
{
	OFFSET 0.000000 0.000000 0.000000
	CHANNELS 6 Xposition Yposition Zposition Zrotation Yrotation Xrotation 
	JOINT lhipjoint
	{
		OFFSET 0.000000 0.000000 0.000000
		CHANNELS 3 Zrotation Yrotation Xrotation
		JOINT lfemur
		{
			OFFSET 1.363060 -1.794630 0.839290
			CHANNELS 3 Zrotation Yrotation Xrotation
			JOINT ltibia
			{
				OFFSET 2.448110 -6.726130 0.000000
				CHANNELS 3 Zrotation Yrotation Xrotation
				JOINT lfoot
				{
					OFFSET 2.562200 -7.039590 0.000000
					CHANNELS 3 Zrotation Yrotation Xrotation
					JOINT ltoes
					{
						OFFSET 0.157640 -0.433110 2.322550
						CHANNELS 3 Zrotation Yrotation Xrotation
						End Site
						{
							OFFSET 0.000000 0.000000 0.000000
						}
					}
				}
			}
		}
	}
	JOINT rhipjoint
	{
		OFFSET 0.000000 0.000000 0.000000
		CHANNELS 3 Zrotation Yrotation Xrotation
		JOINT rfemur
		{
			OFFSET -1.305520 -1.794630 0.839290
			CHANNELS 3 Zrotation Yrotation Xrotation
			JOINT rtibia
			{
				OFFSET -2.542530 -6.985550 0.000000
				CHANNELS 3 Zrotation Yrotation Xrotation
				JOINT rfoot
				{
					OFFSET -2.568260 -7.056230 0.000000
					CHANNELS 3 Zrotation Yrotation Xrotation
					JOINT rtoes
					{
						OFFSET -0.164730 -0.452590 2.363150
						CHANNELS 3 Zrotation Yrotation Xrotation
						End Site
						{
							OFFSET 0.000000 0.000000 0.000000
						}
					}
				}
			}
		}
	}
	JOINT lowerback
	{
		OFFSET 0.000000 0.000000 0.000000
		CHANNELS 3 Zrotation Yrotation Xrotation
		JOINT upperback
		{
			OFFSET 0.028270 2.035590 -0.193380
			CHANNELS 3 Zrotation Yrotation Xrotation
			JOINT thorax
			{
				OFFSET 0.056720 2.048850 -0.042750
				CHANNELS 3 Zrotation Yrotation Xrotation
				JOINT lowerneck
				{
					OFFSET 0.000000 0.000000 0.000000
					CHANNELS 3 Zrotation Yrotation Xrotation
					JOINT upperneck
					{
						OFFSET -0.054170 1.746240 0.172020
						CHANNELS 3 Zrotation Yrotation Xrotation
						JOINT head
						{
							OFFSET 0.104070 1.761360 -0.123970
							CHANNELS 3 Zrotation Yrotation Xrotation
							End Site
							{
								OFFSET 0.000000 0.000000 0.000000
							}
						}
					}
				}
				JOINT lclavicle
				{
					OFFSET 0.000000 0.000000 0.000000
					CHANNELS 3 Zrotation Yrotation Xrotation
					JOINT lhumerus
					{
						OFFSET 3.362410 1.200890 -0.311210
						CHANNELS 3 Zrotation Yrotation Xrotation
						JOINT lradius
						{
							OFFSET 4.983000 -0.000000 -0.000000
							CHANNELS 3 Zrotation Yrotation Xrotation
							JOINT lwrist
							{
								OFFSET 3.483560 -0.000000 -0.000000
								CHANNELS 3 Zrotation Yrotation Xrotation
								JOINT lhand
								{
									OFFSET 0.000000 0.000000 0.000000
									CHANNELS 3 Zrotation Yrotation Xrotation
									JOINT lfingers
									{
										OFFSET 0.715260 -0.000000 -0.000000
										CHANNELS 3 Zrotation Yrotation Xrotation
										End Site
										{
											OFFSET 0.000000 0.000000 0.000000
										}
									}
								}
								JOINT lthumb
								{
									OFFSET 0.000000 0.000000 0.000000
									CHANNELS 3 Zrotation Yrotation Xrotation
									End Site
									{
										OFFSET 0.000000 0.000000 0.000000
									}
								}
							}
						}
					}
				}
				JOINT rclavicle
				{
					OFFSET 0.000000 0.000000 0.000000
					CHANNELS 3 Zrotation Yrotation Xrotation
					JOINT rhumerus
					{
						OFFSET -3.136600 1.374050 -0.404650
						CHANNELS 3 Zrotation Yrotation Xrotation
						JOINT rradius
						{
							OFFSET -5.241900 -0.000000 -0.000000
							CHANNELS 3 Zrotation Yrotation Xrotation
							JOINT rwrist
							{
								OFFSET -3.444170 -0.000000 -0.000000
								CHANNELS 3 Zrotation Yrotation Xrotation
								JOINT rhand
								{
									OFFSET 0.000000 0.000000 0.000000
									CHANNELS 3 Zrotation Yrotation Xrotation
									JOINT rfingers
									{
										OFFSET -0.622530 -0.000000 -0.000000
										CHANNELS 3 Zrotation Yrotation Xrotation
										End Site
										{
											OFFSET 0.000000 0.000000 0.000000
										}
									}
								}
								JOINT rthumb
								{
									OFFSET 0.000000 0.000000 0.000000
									CHANNELS 3 Zrotation Yrotation Xrotation
									End Site
									{
										OFFSET 0.000000 0.000000 0.000000
									}
								}
							}
						}
					}
				}
			}
		}
	}
}
MOTION
Frames: 4
Frame Time: 0.008333
-32.119314 28.812863 -7.013448 -160.565214 68.129206 -155.781519 -3.257089 1.639988 1.445568 -8.569933 -3.063319 -20.592416 5.910990 13.383699 44.267620 1.614261 -6.320384 -7.148717 0.308700 -3.572200 -9.876100 -0.611330 -4.007663 1.286052 32.087187 -1.637159 -24.871753 -3.925226 -10.557240 35.595484 -0.292067 -0.933089 -8.406683 -0.000800 -0.183500 0.504100 3.834877 -1.040269 6.292416 1.645048 -1.142571 -4.076134 3.627796 0.137393 2.145821 -6.254458 -7.848877 -4.660123 0.417729 -8.823562 2.635352 4.645100 -3.719300 1.001300 1.377184 3.069788 0.298453 -76.914512 -13.589058 23.319627 22.327958 -43.620572 -8.076671 -0.794954 0.449272 -178.479696 17.190481 6.609210 2.079200 -7.125000 0.000000 0.000000 -8.831600 37.239500 1.702700 -0.509945 0.224307 3.533090 72.041005 -5.423349 30.822315 -39.497780 50.604804 -12.697741 0.721169 -3.711668 3.531368 -19.804982 -0.525634 -1.287200 7.125000 0.000000 0.000000 4.389200 -26.355100 1.989900 
-32.099532 28.801076 -7.006786 -160.094787 68.208198 -155.157308 -3.249871 1.620792 1.394255 -8.241996 -4.016874 -21.017415 5.966927 13.424512 44.509996 1.937232 -8.895296 -6.017318 0.108100 -2.119600 -5.836300 -0.610632 -4.000321 1.289473 32.297295 -1.465053 -25.033556 -3.966109 -10.605431 35.780203 -0.307041 -0.892337 -8.500437 -0.002600 -0.330400 0.907900 3.970106 -1.051971 6.624260 1.664446 -1.113252 -4.058126 3.637722 0.143478 2.131989 -6.128722 -7.901492 -4.973805 0.400828 -8.871152 2.479304 4.590300 -3.718700 1.010400 1.322370 3.059531 0.280617 -75.910088 -13.336241 23.869956 23.105811 -44.207883 -8.456803 -0.736707 0.400581 -179.192123 16.530587 7.239937 2.164300 -7.125000 0.000000 0.000000 -9.426100 37.803800 1.687900 -0.463702 0.240733 3.538122 71.368483 -5.088062 30.873492 -38.866132 50.142560 -12.410152 0.681395 -3.686435 4.052503 -20.365723 -0.604581 -1.286700 7.125000 0.000000 0.000000 3.970400 -26.446600 1.790600 
-32.078624 28.791544 -7.000944 -159.687906 68.311379 -154.585562 -3.246945 1.607590 1.346452 -7.930188 -5.177479 -21.334370 5.979669 13.411314 44.580181 2.183233 -11.437791 -4.788504 0.004900 -0.449800 -1.235900 -0.606441 -3.996560 1.302321 32.460715 -1.247687 -25.196499 -4.008110 -10.656333 35.971191 -0.318220 -0.871192 -8.602416 -0.006200 -0.506900 1.392800 4.099198 -1.044748 7.019753 1.669131 -1.059693 -4.059877 3.579756 0.162622 2.003662 -5.969054 -7.944306 -5.249411 0.408851 -8.915003 2.349971 4.542300 -3.721900 1.035400 1.257159 3.014158 0.254475 -74.785632 -12.841775 24.401313 23.852006 -44.738084 -8.830162 -0.680479 0.354790 -179.931961 15.911336 7.700616 2.196900 -7.125000 0.000000 0.000000 -9.968400 38.193700 1.690800 -0.428565 0.284159 3.544297 70.794336 -4.955194 30.828145 -38.217421 49.651119 -12.106181 0.646207 -3.663187 4.605951 -20.819283 -0.716755 -1.264200 7.125000 0.000000 0.000000 3.628400 -26.577200 1.624700 
-32.057305 28.783242 -6.996024 -159.414331 68.412395 -154.173238 -3.252246 1.602143 1.300498 -7.677320 -6.436500 -21.540528 5.964158 13.361344 44.529977 2.346699 -13.778107 -3.676784 0.020800 0.931800 2.561200 -0.601977 -3.994672 1.317574 32.556724 -1.034925 -25.322018 -4.050865 -10.708511 36.165423 -0.332671 -0.840419 -8.720809 -0.012200 -0.712300 1.957500 4.193040 -1.042343 7.476810 1.668532 -1.011300 -4.065563 3.512479 0.178650 1.827367 -5.799760 -7.999159 -5.481431 0.389078 -8.975226 2.219250 4.478900 -3.736000 1.050300 1.195100 2.956204 0.226881 -73.681032 -12.194078 24.819201 24.517476 -45.192625 -9.173362 -0.630682 0.313276 179.536672 15.386932 8.110712 2.222000 -7.125000 0.000000 0.000000 -10.433800 38.536200 1.682800 -0.396903 0.341455 3.555211 70.239342 -4.959403 30.716089 -37.547569 49.134044 -11.791433 0.602344 -3.637608 5.047284 -21.299621 -0.672048 -1.304600 7.125000 0.000000 0.000000 3.275500 -26.538400 1.469100 
